# Wavefront OBJ exported by MilkShape 3D

mtllib Asteroid_1.mtl

v -1.858579 -12.192108 1.093571
v -3.154324 -7.457270 -8.043389
v 7.952204 -7.479399 -2.605556
v -3.154324 -7.457270 -8.043389
v -0.911011 -3.884592 -10.529069
v 7.952204 -7.479399 -2.605556
v -8.733093 3.905014 16.463573
v -9.482571 8.035919 7.958141
v -13.531473 -5.735539 12.050202
v -9.482571 8.035919 7.958141
v -16.427849 -1.849506 2.129931
v -13.531473 -5.735539 12.050202
v -1.858579 -12.192108 1.093571
v -13.531473 -5.735539 12.050202
v -7.040611 -9.249010 -4.338424
v -13.531473 -5.735539 12.050202
v -16.427849 -1.849506 2.129931
v -7.040611 -9.249010 -4.338424
v -5.213761 -2.182806 19.153538
v 6.519986 -7.709802 10.071297
v 10.982334 1.895212 11.233443
v 10.982334 1.895212 11.233443
v 6.519986 -7.709802 10.071297
v 11.008613 -6.126716 4.057148
v 10.982334 1.895212 11.233443
v 11.008613 -6.126716 4.057148
v 11.853907 5.394476 0.709524
v -5.213761 -2.182806 19.153538
v 5.468464 6.364379 12.991684
v -8.733093 3.905014 16.463573
v 10.982334 1.895212 11.233443
v 5.468464 6.364379 12.991684
v -5.213761 -2.182806 19.153538
v 10.982334 1.895212 11.233443
v 3.227499 10.064751 -3.102642
v 5.468464 6.364379 12.991684
v 11.853907 5.394476 0.709524
v 3.227499 10.064751 -3.102642
v 10.982334 1.895212 11.233443
v -7.040611 -9.249010 -4.338424
v -14.485239 0.248187 -5.096014
v -3.154324 -7.457270 -8.043389
v -16.427849 -1.849506 2.129931
v -14.485239 0.248187 -5.096014
v -7.040611 -9.249010 -4.338424
v -3.154324 -7.457270 -8.043389
v -5.147489 5.049166 -9.030253
v -0.911011 -3.884592 -10.529069
v -14.485239 0.248187 -5.096014
v -5.147489 5.049166 -9.030253
v -3.154324 -7.457270 -8.043389
v -16.427849 -1.849506 2.129931
v -12.661690 6.050799 -4.248598
v -14.485239 0.248187 -5.096014
v -12.661690 6.050799 -4.248598
v -5.147489 5.049166 -9.030253
v -14.485239 0.248187 -5.096014
v 6.519986 -7.709802 10.071297
v 7.952204 -7.479399 -2.605556
v 11.008613 -6.126716 4.057148
v -1.858579 -12.192108 1.093571
v 7.952204 -7.479399 -2.605556
v 6.519986 -7.709802 10.071297
v -3.154324 -7.457270 -8.043389
v -1.858579 -12.192108 1.093571
v -7.040611 -9.249010 -4.338424
v 7.802987 -1.140965 -8.887819
v 7.952204 -7.479399 -2.605556
v -0.911011 -3.884592 -10.529069
v 3.227499 10.064751 -3.102642
v 11.853907 5.394476 0.709524
v 8.113614 7.281801 -4.967270
v 3.227499 10.064751 -3.102642
v 8.113614 7.281801 -4.967270
v -5.147489 5.049166 -9.030253
v 3.227499 10.064751 -3.102642
v -4.020926 9.661862 2.509511
v 5.468464 6.364379 12.991684
v -8.733093 3.905014 16.463573
v 5.468464 6.364379 12.991684
v -9.482571 8.035919 7.958141
v -9.482571 8.035919 7.958141
v 5.468464 6.364379 12.991684
v -4.020926 9.661862 2.509511
v -4.020926 9.661862 2.509511
v 3.227499 10.064751 -3.102642
v -12.661690 6.050799 -4.248598
v -12.661690 6.050799 -4.248598
v 3.227499 10.064751 -3.102642
v -5.147489 5.049166 -9.030253
v -9.482571 8.035919 7.958141
v -4.020926 9.661862 2.509511
v -12.661690 6.050799 -4.248598
v -8.733093 3.905014 16.463573
v -13.531473 -5.735539 12.050202
v -5.213761 -2.182806 19.153538
v 6.519986 -7.709802 10.071297
v -5.213761 -2.182806 19.153538
v -1.858579 -12.192108 1.093571
v -1.858579 -12.192108 1.093571
v -5.213761 -2.182806 19.153538
v -13.531473 -5.735539 12.050202
v -12.661690 6.050799 -4.248598
v -16.427849 -1.849506 2.129931
v -9.482571 8.035919 7.958141
v 11.853907 5.394476 0.709524
v 7.802987 -1.140965 -8.887819
v 8.113614 7.281801 -4.967270
v 7.802987 -1.140965 -8.887819
v 11.853907 5.394476 0.709524
v 11.008613 -6.126716 4.057148
v 7.952204 -7.479399 -2.605556
v 7.802987 -1.140965 -8.887819
v 11.008613 -6.126716 4.057148
v 7.802987 -1.140965 -8.887819
v -5.147489 5.049166 -9.030253
v 8.113614 7.281801 -4.967270
v -0.911011 -3.884592 -10.529069
v -5.147489 5.049166 -9.030253
v 7.802987 -1.140965 -8.887819
# 120 vertices

vt 0.381636 0.414998
vt 0.618225 0.651587
vt 0.618225 0.414998
vt 0.854814 0.651587
vt 0.156651 0.306428
vt 0.192175 0.574418
vt 0.432711 0.499539
vt 0.432711 0.736128
vt 0.919314 0.406989
vt 0.621964 0.425675
vt 0.911836 0.621841
vt 0.637519 0.651587
vt 0.020238 0.987336
vt 0.355805 0.888307
vt 0.024296 0.720236
vt 0.502735 0.436098
vt 0.819921 0.484675
vt 0.755838 0.366308
vt 0.209811 0.099480
vt 0.191038 0.319750
vt 0.446879 0.270043
vt 0.486317 0.315835
vt 0.630827 0.640133
vt 0.418888 0.521207
vt 0.156830 0.627813
vt 0.037715 0.691245
vt 0.202022 0.892753
vt 0.384440 0.174976
vt 0.405625 0.411183
vt 0.576475 0.276940
vt 0.372841 0.191102
vt 0.924121 0.583013
vt 0.680483 0.691024
vt 0.975771 0.743704
vt 0.510300 0.473427
vt 0.233913 0.712685
vt 0.054712 0.950165
vt 0.293956 0.824437
vt 0.348864 0.488600
vt 0.210410 0.706783
vt 0.623834 0.636687
vt 0.559133 0.477293
vt 0.255383 0.531862
vt 0.575862 0.742824
vt 0.381636 0.651587
vt 0.586923 0.383263
vt 0.702022 0.232703
vt 0.726880 0.369409
vt 0.637476 0.463228
vt 0.408399 0.358011
vt 0.755160 0.211955
vt 0.820794 0.681574
vt 0.668155 0.528936
vt 0.668155 0.681574
vt 0.694957 0.482631
vt 0.458367 0.482631
vt 0.694957 0.719220
vt 0.560223 0.427196
vt 0.453203 0.256829
vt 0.471725 0.423267
vt 0.571901 0.580166
vt 0.408748 0.583411
vt 0.595099 0.771601
vt 0.291581 0.334406
vt 0.519907 0.178776
vt 0.216232 0.268598
vt 0.002520 0.281024
vt 0.299709 0.498135
vt 0.337207 0.483642
vt 0.050719 0.281024
vt 0.102170 0.506842
vt 0.601399 0.656163
vt 0.349854 0.435591
vt 0.388179 0.649299
vt 0.854814 0.414998
vt 0.065867 0.450934
vt 0.302457 0.214345
vt 0.282826 0.485257
vt 0.531984 0.389299
vt 0.900260 0.390352
vt 0.477437 0.182101
vt 0.882855 0.354746
vt 0.503245 0.189090
vt 0.503245 0.425679
vt 0.516037 0.290141
vt 0.445224 0.443590
vt 0.616805 0.445342
vt 0.866878 0.416636
vt 0.878268 0.221390
vt 0.559791 0.219822
vt 0.540415 0.391788
vt 0.745143 0.435455
vt 0.522726 0.241812
vt 0.055455 0.748841
vt 0.372440 0.820716
vt 0.353075 0.620026
vt 0.665288 0.434762
vt 0.412339 0.460540
vt 0.747037 0.593693
# 99 texture coordinates

vn 0.230026 -0.850350 -0.473278
vn 0.325682 -0.669196 -0.667913
vn -0.908026 0.339776 0.245035
vn -0.845759 0.364454 0.389699
vn -0.488676 -0.872441 -0.006507
vn -0.657685 -0.746568 -0.100429
vn 0.480090 -0.321782 0.816070
vn 0.777332 -0.418019 0.470123
vn 0.996439 -0.054383 0.064441
vn 0.133677 0.464171 0.875600
vn 0.405067 0.144585 0.902782
vn 0.643643 0.760563 0.085246
vn 0.336694 0.884814 0.322090
vn -0.498727 -0.450031 -0.740772
vn -0.718349 -0.592216 -0.365040
vn -0.608962 -0.158381 -0.777226
vn -0.329304 -0.126319 -0.935736
vn -0.934926 0.317077 -0.159296
vn -0.489865 0.274775 -0.827364
vn 0.360736 -0.932364 0.023810
vn 0.443067 -0.895852 0.033775
vn -0.025835 -0.889063 -0.457055
vn 0.334434 -0.659435 -0.673275
vn 0.486062 0.873413 -0.029876
vn 0.108636 0.677897 -0.727086
vn 0.107434 0.972095 0.208543
vn -0.047795 0.896831 0.439783
vn 0.008101 0.955958 0.293391
vn -0.223860 0.949238 -0.220984
vn -0.184140 0.863149 -0.470177
vn -0.342255 0.937471 -0.063319
vn -0.641176 -0.031872 0.766732
vn -0.043080 -0.877210 0.478169
vn -0.034949 -0.876855 0.479483
vn -0.846699 0.514159 0.136899
vn 0.847464 0.198009 -0.492541
vn 0.943529 -0.154394 -0.293115
vn 0.884676 -0.317516 -0.341368
vn 0.204281 0.406894 -0.890341
vn 0.114319 0.216862 -0.969485
# 40 normals

g Root
usemtl detailmap_ast_mineable_plain
s 1
f 1/1/1 2/2/1 3/3/1
f 4/2/2 5/4/2 6/3/2
f 7/5/3 8/6/3 9/7/3
f 10/6/4 11/8/4 12/7/4
f 13/9/5 14/10/5 15/11/5
f 16/10/6 17/12/6 18/11/6
f 19/13/7 20/14/7 21/15/7
f 22/16/8 23/17/8 24/18/8
f 25/19/9 26/20/9 27/21/9
f 28/22/10 29/23/10 30/24/10
f 31/25/11 32/26/11 33/27/11
f 34/10/12 35/28/12 36/29/12
f 37/30/13 38/31/13 39/10/13
f 40/32/14 41/33/14 42/34/14
f 43/35/15 44/33/15 45/32/15
f 46/36/16 47/37/16 48/38/16
f 49/39/17 50/40/17 51/41/17
f 52/42/18 53/43/18 54/44/18
f 55/1/19 56/45/19 57/3/19
f 58/46/20 59/47/20 60/48/20
f 61/49/21 62/50/21 63/51/21
f 64/52/22 65/53/22 66/54/22
f 67/55/23 68/56/23 69/57/23
f 70/58/24 71/59/24 72/60/24
f 73/61/25 74/62/25 75/63/25
f 76/64/26 77/58/26 78/65/26
f 79/66/27 80/67/27 81/68/27
f 82/69/28 83/70/28 84/71/28
f 85/3/29 86/1/29 87/2/29
f 88/72/30 89/73/30 90/74/30
f 91/75/31 92/3/31 93/4/31
f 94/76/32 95/77/32 96/78/32
f 97/79/33 98/80/33 99/81/33
f 100/82/34 101/83/34 102/84/34
f 103/45/35 104/2/35 105/1/35
f 106/85/36 107/86/36 108/87/36
f 109/88/37 110/89/37 111/90/37
f 112/91/38 113/92/38 114/93/38
f 115/94/39 116/95/39 117/96/39
f 118/97/40 119/98/40 120/99/40
# 40 triangles in group

# 40 triangles total

